<svg xmlns="http://www.w3.org/2000/svg" xmlns:xlink="http://www.w3.org/1999/xlink" width="300" zoomAndPan="magnify" viewBox="0 0 224.87999 60" height="80" preserveAspectRatio="xMidYMid meet" version="1.0"><defs><g/></defs><g fill="#b80071" fill-opacity="1"><g transform="translate(4.790412, 49.839422)"><g><path d="M 23.71875 -35 C 23.71875 -34.144531 23.382812 -33.363281 22.71875 -32.65625 C 22.050781 -31.957031 21.25 -31.34375 20.3125 -30.8125 C 19.375 -30.289062 18.410156 -29.859375 17.421875 -29.515625 C 16.429688 -29.171875 15.613281 -28.929688 14.96875 -28.796875 C 14.6875 -26.160156 14.46875 -23.535156 14.3125 -20.921875 C 14.164062 -18.316406 14.09375 -15.695312 14.09375 -13.0625 C 14.09375 -11.664062 14.125 -10.28125 14.1875 -8.90625 C 14.257812 -7.539062 14.296875 -6.175781 14.296875 -4.8125 C 14.296875 -4.195312 14.234375 -3.519531 14.109375 -2.78125 C 13.992188 -2.050781 13.789062 -1.363281 13.5 -0.71875 C 13.207031 -0.0703125 12.804688 0.472656 12.296875 0.921875 C 11.785156 1.367188 11.15625 1.59375 10.40625 1.59375 C 9.507812 1.59375 8.796875 1.34375 8.265625 0.84375 C 7.742188 0.351562 7.335938 -0.25 7.046875 -0.96875 C 6.753906 -1.6875 6.554688 -2.445312 6.453125 -3.25 C 6.347656 -4.050781 6.296875 -4.78125 6.296875 -5.4375 C 6.234375 -7.476562 6.179688 -9.53125 6.140625 -11.59375 C 6.109375 -13.664062 6.09375 -15.742188 6.09375 -17.828125 C 6.09375 -19.566406 6.101562 -21.273438 6.125 -22.953125 C 6.144531 -24.628906 6.15625 -26.335938 6.15625 -28.078125 C 5.675781 -28.003906 5.1875 -27.953125 4.6875 -27.921875 C 4.195312 -27.890625 3.691406 -27.875 3.171875 -27.875 C 2.765625 -27.875 2.226562 -27.914062 1.5625 -28 C 0.894531 -28.082031 0.253906 -28.234375 -0.359375 -28.453125 C -0.972656 -28.679688 -1.5 -28.988281 -1.9375 -29.375 C -2.382812 -29.769531 -2.609375 -30.273438 -2.609375 -30.890625 C -2.609375 -31.921875 -2.207031 -32.816406 -1.40625 -33.578125 C -0.601562 -34.347656 0.414062 -35.015625 1.65625 -35.578125 C 2.90625 -36.148438 4.289062 -36.628906 5.8125 -37.015625 C 7.332031 -37.410156 8.832031 -37.71875 10.3125 -37.9375 C 11.800781 -38.164062 13.171875 -38.328125 14.421875 -38.421875 C 15.671875 -38.523438 16.632812 -38.578125 17.3125 -38.578125 C 17.96875 -38.578125 18.660156 -38.550781 19.390625 -38.5 C 20.128906 -38.445312 20.820312 -38.300781 21.46875 -38.0625 C 22.113281 -37.832031 22.648438 -37.476562 23.078125 -37 C 23.503906 -36.519531 23.71875 -35.851562 23.71875 -35 Z M 23.71875 -35 "/></g></g></g><g fill="#ffffff" fill-opacity="1"><g transform="translate(24.315148, 49.839422)"><g><path d="M 23 -9.125 C 23 -7.957031 22.628906 -6.816406 21.890625 -5.703125 C 21.160156 -4.597656 20.238281 -3.609375 19.125 -2.734375 C 18.019531 -1.867188 16.835938 -1.171875 15.578125 -0.640625 C 14.316406 -0.109375 13.15625 0.15625 12.09375 0.15625 C 10.28125 0.15625 8.664062 -0.296875 7.25 -1.203125 C 5.832031 -2.109375 4.644531 -3.257812 3.6875 -4.65625 C 2.726562 -6.0625 2 -7.609375 1.5 -9.296875 C 1.007812 -10.992188 0.765625 -12.644531 0.765625 -14.25 C 0.765625 -15.957031 1.003906 -17.78125 1.484375 -19.71875 C 1.960938 -21.664062 2.6875 -23.457031 3.65625 -25.09375 C 4.632812 -26.738281 5.863281 -28.109375 7.34375 -29.203125 C 8.832031 -30.296875 10.601562 -30.84375 12.65625 -30.84375 C 13.8125 -30.84375 14.921875 -30.644531 15.984375 -30.25 C 17.046875 -29.863281 17.96875 -29.3125 18.75 -28.59375 C 19.539062 -27.875 20.171875 -27.019531 20.640625 -26.03125 C 21.117188 -25.039062 21.359375 -23.929688 21.359375 -22.703125 C 21.359375 -21.097656 21.015625 -19.59375 20.328125 -18.1875 C 19.648438 -16.789062 18.75 -15.578125 17.625 -14.546875 C 16.5 -13.523438 15.203125 -12.695312 13.734375 -12.0625 C 12.265625 -11.4375 10.757812 -11.085938 9.21875 -11.015625 C 9.351562 -10.023438 9.753906 -9.304688 10.421875 -8.859375 C 11.085938 -8.421875 11.882812 -8.203125 12.8125 -8.203125 C 13.488281 -8.203125 14.148438 -8.367188 14.796875 -8.703125 C 15.453125 -9.046875 16.085938 -9.429688 16.703125 -9.859375 C 17.316406 -10.285156 17.921875 -10.671875 18.515625 -11.015625 C 19.117188 -11.359375 19.726562 -11.53125 20.34375 -11.53125 C 21.019531 -11.53125 21.628906 -11.304688 22.171875 -10.859375 C 22.722656 -10.421875 23 -9.84375 23 -9.125 Z M 14.703125 -21.671875 C 14.703125 -22.117188 14.582031 -22.582031 14.34375 -23.0625 C 14.101562 -23.539062 13.726562 -23.78125 13.21875 -23.78125 C 12.46875 -23.78125 11.835938 -23.582031 11.328125 -23.1875 C 10.816406 -22.789062 10.390625 -22.289062 10.046875 -21.6875 C 9.703125 -21.09375 9.4375 -20.453125 9.25 -19.765625 C 9.0625 -19.085938 8.953125 -18.457031 8.921875 -17.875 C 9.398438 -17.976562 9.96875 -18.113281 10.625 -18.28125 C 11.289062 -18.457031 11.921875 -18.691406 12.515625 -18.984375 C 13.117188 -19.273438 13.632812 -19.640625 14.0625 -20.078125 C 14.488281 -20.523438 14.703125 -21.054688 14.703125 -21.671875 Z M 14.703125 -21.671875 "/></g></g><g transform="translate(47.83531, 49.839422)"><g><path d="M 20.546875 -19.671875 C 20.546875 -19.503906 20.523438 -19.328125 20.484375 -19.140625 C 20.453125 -18.953125 20.40625 -18.769531 20.34375 -18.59375 C 20.03125 -17.8125 19.550781 -17.15625 18.90625 -16.625 C 18.257812 -16.09375 17.488281 -15.828125 16.59375 -15.828125 C 15.269531 -15.828125 14.367188 -16.492188 13.890625 -17.828125 C 13.816406 -18.003906 13.78125 -18.203125 13.78125 -18.421875 C 13.78125 -18.640625 13.765625 -18.867188 13.734375 -19.109375 L 13.734375 -20.59375 C 13.660156 -21.070312 13.539062 -21.445312 13.375 -21.71875 C 13.207031 -22 12.914062 -22.140625 12.5 -22.140625 C 11.914062 -22.140625 11.359375 -21.769531 10.828125 -21.03125 C 10.304688 -20.300781 9.847656 -19.429688 9.453125 -18.421875 C 9.054688 -17.410156 8.738281 -16.375 8.5 -15.3125 C 8.257812 -14.257812 8.140625 -13.410156 8.140625 -12.765625 C 8.140625 -12.242188 8.175781 -11.613281 8.25 -10.875 C 8.320312 -10.144531 8.457031 -9.4375 8.65625 -8.75 C 8.863281 -8.070312 9.144531 -7.484375 9.5 -6.984375 C 9.863281 -6.492188 10.332031 -6.25 10.90625 -6.25 C 11.488281 -6.25 12.023438 -6.425781 12.515625 -6.78125 C 13.015625 -7.144531 13.503906 -7.566406 13.984375 -8.046875 C 14.429688 -8.453125 14.921875 -8.875 15.453125 -9.3125 C 15.984375 -9.757812 16.585938 -9.984375 17.265625 -9.984375 C 18.117188 -9.984375 18.789062 -9.675781 19.28125 -9.0625 C 19.78125 -8.445312 20.03125 -7.75 20.03125 -6.96875 C 20.03125 -5.800781 19.722656 -4.710938 19.109375 -3.703125 C 18.492188 -2.703125 17.722656 -1.832031 16.796875 -1.09375 C 15.878906 -0.363281 14.859375 0.210938 13.734375 0.640625 C 12.609375 1.066406 11.53125 1.28125 10.5 1.28125 C 8.65625 1.28125 7.09375 0.820312 5.8125 -0.09375 C 4.53125 -1.019531 3.492188 -2.191406 2.703125 -3.609375 C 1.921875 -5.023438 1.359375 -6.570312 1.015625 -8.25 C 0.679688 -9.925781 0.515625 -11.515625 0.515625 -13.015625 C 0.515625 -14.753906 0.753906 -16.640625 1.234375 -18.671875 C 1.710938 -20.703125 2.445312 -22.585938 3.4375 -24.328125 C 4.425781 -26.078125 5.695312 -27.53125 7.25 -28.6875 C 8.800781 -29.851562 10.65625 -30.4375 12.8125 -30.4375 C 14.144531 -30.4375 15.296875 -30.144531 16.265625 -29.5625 C 17.242188 -28.976562 18.046875 -28.21875 18.671875 -27.28125 C 19.304688 -26.34375 19.785156 -25.289062 20.109375 -24.125 C 20.429688 -22.96875 20.59375 -21.828125 20.59375 -20.703125 C 20.59375 -20.523438 20.59375 -20.351562 20.59375 -20.1875 C 20.59375 -20.019531 20.578125 -19.847656 20.546875 -19.671875 Z M 20.546875 -19.671875 "/></g></g><g transform="translate(69.715722, 49.839422)"><g><path d="M 24.796875 -13.265625 C 24.796875 -12.691406 24.785156 -11.832031 24.765625 -10.6875 C 24.753906 -9.539062 24.707031 -8.34375 24.625 -7.09375 C 24.539062 -5.84375 24.425781 -4.660156 24.28125 -3.546875 C 24.144531 -2.441406 23.976562 -1.632812 23.78125 -1.125 C 23.5 -0.476562 23.132812 0.0820312 22.6875 0.5625 C 22.25 1.039062 21.65625 1.28125 20.90625 1.28125 C 19.738281 1.28125 18.898438 0.820312 18.390625 -0.09375 C 17.878906 -1.019531 17.535156 -2.164062 17.359375 -3.53125 C 17.191406 -4.894531 17.125 -6.378906 17.15625 -7.984375 C 17.195312 -9.597656 17.179688 -11.085938 17.109375 -12.453125 C 17.046875 -13.816406 16.859375 -14.957031 16.546875 -15.875 C 16.242188 -16.800781 15.679688 -17.265625 14.859375 -17.265625 C 13.734375 -17.265625 12.867188 -17.082031 12.265625 -16.71875 C 11.671875 -16.363281 11.242188 -15.894531 10.984375 -15.3125 C 10.734375 -14.738281 10.582031 -14.070312 10.53125 -13.3125 C 10.476562 -12.5625 10.414062 -11.78125 10.34375 -10.96875 C 10.28125 -10.175781 10.226562 -9.113281 10.1875 -7.78125 C 10.15625 -6.457031 10.003906 -5.144531 9.734375 -3.84375 C 9.460938 -2.539062 9.007812 -1.421875 8.375 -0.484375 C 7.738281 0.453125 6.804688 0.921875 5.578125 0.921875 C 4.828125 0.921875 4.222656 0.628906 3.765625 0.046875 C 3.304688 -0.523438 2.9375 -1.273438 2.65625 -2.203125 C 2.382812 -3.128906 2.1875 -4.15625 2.0625 -5.28125 C 1.945312 -6.40625 1.878906 -7.503906 1.859375 -8.578125 C 1.847656 -9.660156 1.847656 -10.644531 1.859375 -11.53125 C 1.878906 -12.414062 1.890625 -13.082031 1.890625 -13.53125 C 1.890625 -14.207031 1.914062 -15.332031 1.96875 -16.90625 C 2.019531 -18.476562 2.128906 -20.226562 2.296875 -22.15625 C 2.472656 -24.09375 2.695312 -26.082031 2.96875 -28.125 C 3.238281 -30.175781 3.597656 -32.046875 4.046875 -33.734375 C 4.492188 -35.429688 5.03125 -36.804688 5.65625 -37.859375 C 6.289062 -38.921875 7.035156 -39.4375 7.890625 -39.40625 C 8.429688 -39.375 8.898438 -39.132812 9.296875 -38.6875 C 9.691406 -38.238281 10.015625 -37.664062 10.265625 -36.96875 C 10.523438 -36.269531 10.738281 -35.507812 10.90625 -34.6875 C 11.082031 -33.863281 11.210938 -33.050781 11.296875 -32.25 C 11.378906 -31.445312 11.429688 -30.703125 11.453125 -30.015625 C 11.472656 -29.335938 11.484375 -28.8125 11.484375 -28.4375 C 11.484375 -27.550781 11.460938 -26.660156 11.421875 -25.765625 C 11.390625 -24.878906 11.335938 -23.992188 11.265625 -23.109375 C 12.054688 -24.171875 13.109375 -25.039062 14.421875 -25.71875 C 15.734375 -26.40625 17.054688 -26.75 18.390625 -26.75 C 20.097656 -26.75 21.382812 -26.273438 22.25 -25.328125 C 23.125 -24.390625 23.75 -23.226562 24.125 -21.84375 C 24.507812 -20.46875 24.71875 -19 24.75 -17.4375 C 24.78125 -15.882812 24.796875 -14.492188 24.796875 -13.265625 Z M 24.796875 -13.265625 "/></g></g><g transform="translate(96.617868, 49.839422)"><g/></g></g><g fill="#0056c8" fill-opacity="1"><g transform="translate(108.973091, 49.839422)"><g><path d="M 18.296875 -35.96875 C 18.296875 -35.1875 18.046875 -34.503906 17.546875 -33.921875 C 17.054688 -33.335938 16.46875 -32.859375 15.78125 -32.484375 C 15.164062 -32.109375 14.53125 -31.707031 13.875 -31.28125 C 13.226562 -30.851562 12.628906 -30.375 12.078125 -29.84375 C 11.535156 -29.3125 11.09375 -28.722656 10.75 -28.078125 C 10.414062 -27.429688 10.25 -26.695312 10.25 -25.875 C 10.25 -25.15625 10.414062 -24.503906 10.75 -23.921875 C 11.09375 -23.347656 11.515625 -22.773438 12.015625 -22.203125 C 12.515625 -21.640625 13.0625 -21.0625 13.65625 -20.46875 C 14.25 -19.875 14.789062 -19.207031 15.28125 -18.46875 C 15.78125 -17.738281 16.203125 -16.910156 16.546875 -15.984375 C 16.890625 -15.066406 17.0625 -13.992188 17.0625 -12.765625 C 17.0625 -11.910156 16.878906 -10.941406 16.515625 -9.859375 C 16.160156 -8.785156 15.675781 -7.703125 15.0625 -6.609375 C 14.445312 -5.515625 13.71875 -4.453125 12.875 -3.421875 C 12.039062 -2.398438 11.15625 -1.488281 10.21875 -0.6875 C 9.28125 0.113281 8.296875 0.757812 7.265625 1.25 C 6.242188 1.75 5.253906 2 4.296875 2 C 3.242188 2 2.304688 1.707031 1.484375 1.125 C 0.660156 0.539062 0.25 -0.328125 0.25 -1.484375 C 0.25 -2.273438 0.4375 -3 0.8125 -3.65625 C 1.195312 -4.320312 1.660156 -4.960938 2.203125 -5.578125 C 2.742188 -6.191406 3.347656 -6.789062 4.015625 -7.375 C 4.679688 -7.957031 5.285156 -8.535156 5.828125 -9.109375 C 6.378906 -9.691406 6.84375 -10.300781 7.21875 -10.9375 C 7.59375 -11.570312 7.78125 -12.25 7.78125 -12.96875 C 7.78125 -13.957031 7.429688 -14.972656 6.734375 -16.015625 C 6.035156 -17.054688 5.257812 -18.128906 4.40625 -19.234375 C 3.550781 -20.347656 2.773438 -21.484375 2.078125 -22.640625 C 1.378906 -23.804688 1.03125 -24.988281 1.03125 -26.1875 C 1.03125 -27.65625 1.421875 -29.195312 2.203125 -30.8125 C 2.984375 -32.4375 3.988281 -33.921875 5.21875 -35.265625 C 6.457031 -36.617188 7.84375 -37.738281 9.375 -38.625 C 10.914062 -39.519531 12.4375 -39.96875 13.9375 -39.96875 C 15.132812 -39.96875 16.160156 -39.609375 17.015625 -38.890625 C 17.867188 -38.171875 18.296875 -37.195312 18.296875 -35.96875 Z M 18.296875 -35.96875 "/></g></g></g><g fill="#ffffff" fill-opacity="1"><g transform="translate(127.525689, 49.839422)"><g><path d="M 9.984375 -35.765625 C 9.984375 -35.285156 9.851562 -34.859375 9.59375 -34.484375 C 9.34375 -34.109375 9.015625 -33.773438 8.609375 -33.484375 C 8.203125 -33.191406 7.757812 -32.96875 7.28125 -32.8125 C 6.800781 -32.664062 6.351562 -32.59375 5.9375 -32.59375 C 5.257812 -32.59375 4.660156 -32.757812 4.140625 -33.09375 C 3.628906 -33.4375 3.375 -33.96875 3.375 -34.6875 C 3.375 -35.195312 3.503906 -35.648438 3.765625 -36.046875 C 4.023438 -36.441406 4.34375 -36.765625 4.71875 -37.015625 C 5.09375 -37.273438 5.519531 -37.472656 6 -37.609375 C 6.476562 -37.742188 6.9375 -37.8125 7.375 -37.8125 C 8.03125 -37.8125 8.628906 -37.65625 9.171875 -37.34375 C 9.710938 -37.039062 9.984375 -36.515625 9.984375 -35.765625 Z M 10.40625 -18.34375 C 10.40625 -17.863281 10.40625 -17.359375 10.40625 -16.828125 C 10.40625 -16.296875 10.382812 -15.796875 10.34375 -15.328125 C 10.3125 -14.742188 10.296875 -13.960938 10.296875 -12.984375 C 10.296875 -12.015625 10.257812 -10.960938 10.1875 -9.828125 C 10.125 -8.703125 10.015625 -7.554688 9.859375 -6.390625 C 9.710938 -5.234375 9.46875 -4.175781 9.125 -3.21875 C 8.78125 -2.269531 8.328125 -1.492188 7.765625 -0.890625 C 7.203125 -0.296875 6.492188 0.015625 5.640625 0.046875 C 4.984375 0.0859375 4.429688 -0.160156 3.984375 -0.703125 C 3.546875 -1.253906 3.179688 -1.96875 2.890625 -2.84375 C 2.597656 -3.71875 2.382812 -4.691406 2.25 -5.765625 C 2.113281 -6.835938 2.007812 -7.878906 1.9375 -8.890625 C 1.875 -9.898438 1.84375 -10.832031 1.84375 -11.6875 C 1.84375 -12.539062 1.84375 -13.171875 1.84375 -13.578125 C 1.84375 -14.117188 1.84375 -14.894531 1.84375 -15.90625 C 1.84375 -16.914062 1.875 -18 1.9375 -19.15625 C 2.007812 -20.320312 2.140625 -21.503906 2.328125 -22.703125 C 2.515625 -23.898438 2.785156 -24.992188 3.140625 -25.984375 C 3.503906 -26.972656 3.976562 -27.773438 4.5625 -28.390625 C 5.144531 -29.003906 5.878906 -29.3125 6.765625 -29.3125 C 7.679688 -29.3125 8.378906 -28.847656 8.859375 -27.921875 C 9.335938 -27.003906 9.695312 -25.929688 9.9375 -24.703125 C 10.175781 -23.472656 10.3125 -22.25 10.34375 -21.03125 C 10.382812 -19.820312 10.40625 -18.925781 10.40625 -18.34375 Z M 10.40625 -18.34375 "/></g></g><g transform="translate(140.028782, 49.839422)"><g><path d="M 11.125 -31.046875 C 11.125 -29.203125 11.046875 -27.347656 10.890625 -25.484375 C 10.734375 -23.628906 10.65625 -21.757812 10.65625 -19.875 C 10.65625 -17.457031 10.734375 -15.035156 10.890625 -12.609375 C 11.046875 -10.179688 11.125 -7.738281 11.125 -5.28125 C 11.125 -4.664062 11.085938 -3.972656 11.015625 -3.203125 C 10.941406 -2.429688 10.773438 -1.722656 10.515625 -1.078125 C 10.265625 -0.429688 9.882812 0.113281 9.375 0.5625 C 8.863281 1.007812 8.179688 1.234375 7.328125 1.234375 C 6.503906 1.234375 5.789062 0.832031 5.1875 0.03125 C 4.59375 -0.769531 4.097656 -1.796875 3.703125 -3.046875 C 3.316406 -4.296875 2.992188 -5.6875 2.734375 -7.21875 C 2.484375 -8.757812 2.296875 -10.253906 2.171875 -11.703125 C 2.054688 -13.160156 1.972656 -14.492188 1.921875 -15.703125 C 1.867188 -16.921875 1.84375 -17.816406 1.84375 -18.390625 C 1.84375 -19.046875 1.867188 -19.988281 1.921875 -21.21875 C 1.972656 -22.445312 2.082031 -23.773438 2.25 -25.203125 C 2.425781 -26.640625 2.65625 -28.097656 2.9375 -29.578125 C 3.226562 -31.066406 3.613281 -32.414062 4.09375 -33.625 C 4.570312 -34.84375 5.144531 -35.835938 5.8125 -36.609375 C 6.476562 -37.378906 7.273438 -37.765625 8.203125 -37.765625 C 8.953125 -37.765625 9.519531 -37.515625 9.90625 -37.015625 C 10.300781 -36.523438 10.582031 -35.925781 10.75 -35.21875 C 10.925781 -34.519531 11.03125 -33.785156 11.0625 -33.015625 C 11.101562 -32.253906 11.125 -31.597656 11.125 -31.046875 Z M 11.125 -31.046875 "/></g></g><g transform="translate(153.505476, 49.839422)"><g><path d="M 11.125 -31.046875 C 11.125 -29.203125 11.046875 -27.347656 10.890625 -25.484375 C 10.734375 -23.628906 10.65625 -21.757812 10.65625 -19.875 C 10.65625 -17.457031 10.734375 -15.035156 10.890625 -12.609375 C 11.046875 -10.179688 11.125 -7.738281 11.125 -5.28125 C 11.125 -4.664062 11.085938 -3.972656 11.015625 -3.203125 C 10.941406 -2.429688 10.773438 -1.722656 10.515625 -1.078125 C 10.265625 -0.429688 9.882812 0.113281 9.375 0.5625 C 8.863281 1.007812 8.179688 1.234375 7.328125 1.234375 C 6.503906 1.234375 5.789062 0.832031 5.1875 0.03125 C 4.59375 -0.769531 4.097656 -1.796875 3.703125 -3.046875 C 3.316406 -4.296875 2.992188 -5.6875 2.734375 -7.21875 C 2.484375 -8.757812 2.296875 -10.253906 2.171875 -11.703125 C 2.054688 -13.160156 1.972656 -14.492188 1.921875 -15.703125 C 1.867188 -16.921875 1.84375 -17.816406 1.84375 -18.390625 C 1.84375 -19.046875 1.867188 -19.988281 1.921875 -21.21875 C 1.972656 -22.445312 2.082031 -23.773438 2.25 -25.203125 C 2.425781 -26.640625 2.65625 -28.097656 2.9375 -29.578125 C 3.226562 -31.066406 3.613281 -32.414062 4.09375 -33.625 C 4.570312 -34.84375 5.144531 -35.835938 5.8125 -36.609375 C 6.476562 -37.378906 7.273438 -37.765625 8.203125 -37.765625 C 8.953125 -37.765625 9.519531 -37.515625 9.90625 -37.015625 C 10.300781 -36.523438 10.582031 -35.925781 10.75 -35.21875 C 10.925781 -34.519531 11.03125 -33.785156 11.0625 -33.015625 C 11.101562 -32.253906 11.125 -31.597656 11.125 -31.046875 Z M 11.125 -31.046875 "/></g></g><g transform="translate(166.98217, 49.839422)"><g><path d="M 9.984375 -35.765625 C 9.984375 -35.285156 9.851562 -34.859375 9.59375 -34.484375 C 9.34375 -34.109375 9.015625 -33.773438 8.609375 -33.484375 C 8.203125 -33.191406 7.757812 -32.96875 7.28125 -32.8125 C 6.800781 -32.664062 6.351562 -32.59375 5.9375 -32.59375 C 5.257812 -32.59375 4.660156 -32.757812 4.140625 -33.09375 C 3.628906 -33.4375 3.375 -33.96875 3.375 -34.6875 C 3.375 -35.195312 3.503906 -35.648438 3.765625 -36.046875 C 4.023438 -36.441406 4.34375 -36.765625 4.71875 -37.015625 C 5.09375 -37.273438 5.519531 -37.472656 6 -37.609375 C 6.476562 -37.742188 6.9375 -37.8125 7.375 -37.8125 C 8.03125 -37.8125 8.628906 -37.65625 9.171875 -37.34375 C 9.710938 -37.039062 9.984375 -36.515625 9.984375 -35.765625 Z M 10.40625 -18.34375 C 10.40625 -17.863281 10.40625 -17.359375 10.40625 -16.828125 C 10.40625 -16.296875 10.382812 -15.796875 10.34375 -15.328125 C 10.3125 -14.742188 10.296875 -13.960938 10.296875 -12.984375 C 10.296875 -12.015625 10.257812 -10.960938 10.1875 -9.828125 C 10.125 -8.703125 10.015625 -7.554688 9.859375 -6.390625 C 9.710938 -5.234375 9.46875 -4.175781 9.125 -3.21875 C 8.78125 -2.269531 8.328125 -1.492188 7.765625 -0.890625 C 7.203125 -0.296875 6.492188 0.015625 5.640625 0.046875 C 4.984375 0.0859375 4.429688 -0.160156 3.984375 -0.703125 C 3.546875 -1.253906 3.179688 -1.96875 2.890625 -2.84375 C 2.597656 -3.71875 2.382812 -4.691406 2.25 -5.765625 C 2.113281 -6.835938 2.007812 -7.878906 1.9375 -8.890625 C 1.875 -9.898438 1.84375 -10.832031 1.84375 -11.6875 C 1.84375 -12.539062 1.84375 -13.171875 1.84375 -13.578125 C 1.84375 -14.117188 1.84375 -14.894531 1.84375 -15.90625 C 1.84375 -16.914062 1.875 -18 1.9375 -19.15625 C 2.007812 -20.320312 2.140625 -21.503906 2.328125 -22.703125 C 2.515625 -23.898438 2.785156 -24.992188 3.140625 -25.984375 C 3.503906 -26.972656 3.976562 -27.773438 4.5625 -28.390625 C 5.144531 -29.003906 5.878906 -29.3125 6.765625 -29.3125 C 7.679688 -29.3125 8.378906 -28.847656 8.859375 -27.921875 C 9.335938 -27.003906 9.695312 -25.929688 9.9375 -24.703125 C 10.175781 -23.472656 10.3125 -22.25 10.34375 -21.03125 C 10.382812 -19.820312 10.40625 -18.925781 10.40625 -18.34375 Z M 10.40625 -18.34375 "/></g></g><g transform="translate(179.485263, 49.839422)"><g><path d="M 23 -9.125 C 23 -7.957031 22.628906 -6.816406 21.890625 -5.703125 C 21.160156 -4.597656 20.238281 -3.609375 19.125 -2.734375 C 18.019531 -1.867188 16.835938 -1.171875 15.578125 -0.640625 C 14.316406 -0.109375 13.15625 0.15625 12.09375 0.15625 C 10.28125 0.15625 8.664062 -0.296875 7.25 -1.203125 C 5.832031 -2.109375 4.644531 -3.257812 3.6875 -4.65625 C 2.726562 -6.0625 2 -7.609375 1.5 -9.296875 C 1.007812 -10.992188 0.765625 -12.644531 0.765625 -14.25 C 0.765625 -15.957031 1.003906 -17.78125 1.484375 -19.71875 C 1.960938 -21.664062 2.6875 -23.457031 3.65625 -25.09375 C 4.632812 -26.738281 5.863281 -28.109375 7.34375 -29.203125 C 8.832031 -30.296875 10.601562 -30.84375 12.65625 -30.84375 C 13.8125 -30.84375 14.921875 -30.644531 15.984375 -30.25 C 17.046875 -29.863281 17.96875 -29.3125 18.75 -28.59375 C 19.539062 -27.875 20.171875 -27.019531 20.640625 -26.03125 C 21.117188 -25.039062 21.359375 -23.929688 21.359375 -22.703125 C 21.359375 -21.097656 21.015625 -19.59375 20.328125 -18.1875 C 19.648438 -16.789062 18.75 -15.578125 17.625 -14.546875 C 16.5 -13.523438 15.203125 -12.695312 13.734375 -12.0625 C 12.265625 -11.4375 10.757812 -11.085938 9.21875 -11.015625 C 9.351562 -10.023438 9.753906 -9.304688 10.421875 -8.859375 C 11.085938 -8.421875 11.882812 -8.203125 12.8125 -8.203125 C 13.488281 -8.203125 14.148438 -8.367188 14.796875 -8.703125 C 15.453125 -9.046875 16.085938 -9.429688 16.703125 -9.859375 C 17.316406 -10.285156 17.921875 -10.671875 18.515625 -11.015625 C 19.117188 -11.359375 19.726562 -11.53125 20.34375 -11.53125 C 21.019531 -11.53125 21.628906 -11.304688 22.171875 -10.859375 C 22.722656 -10.421875 23 -9.84375 23 -9.125 Z M 14.703125 -21.671875 C 14.703125 -22.117188 14.582031 -22.582031 14.34375 -23.0625 C 14.101562 -23.539062 13.726562 -23.78125 13.21875 -23.78125 C 12.46875 -23.78125 11.835938 -23.582031 11.328125 -23.1875 C 10.816406 -22.789062 10.390625 -22.289062 10.046875 -21.6875 C 9.703125 -21.09375 9.4375 -20.453125 9.25 -19.765625 C 9.0625 -19.085938 8.953125 -18.457031 8.921875 -17.875 C 9.398438 -17.976562 9.96875 -18.113281 10.625 -18.28125 C 11.289062 -18.457031 11.921875 -18.691406 12.515625 -18.984375 C 13.117188 -19.273438 13.632812 -19.640625 14.0625 -20.078125 C 14.488281 -20.523438 14.703125 -21.054688 14.703125 -21.671875 Z M 14.703125 -21.671875 "/></g></g><g transform="translate(203.005425, 49.839422)"><g><path d="M 16.546875 -28.1875 C 16.546875 -27.195312 16.210938 -26.460938 15.546875 -25.984375 C 14.878906 -25.503906 14.132812 -25.050781 13.3125 -24.625 C 12.5 -24.195312 11.757812 -23.691406 11.09375 -23.109375 C 10.425781 -22.523438 10.09375 -21.65625 10.09375 -20.5 C 10.09375 -19.882812 10.238281 -19.351562 10.53125 -18.90625 C 10.820312 -18.457031 11.179688 -18.054688 11.609375 -17.703125 C 12.035156 -17.347656 12.503906 -16.976562 13.015625 -16.59375 C 13.523438 -16.21875 13.992188 -15.789062 14.421875 -15.3125 C 14.847656 -14.84375 15.207031 -14.265625 15.5 -13.578125 C 15.789062 -12.890625 15.9375 -12.050781 15.9375 -11.0625 C 15.9375 -9.632812 15.566406 -8.226562 14.828125 -6.84375 C 14.097656 -5.457031 13.160156 -4.222656 12.015625 -3.140625 C 10.867188 -2.066406 9.578125 -1.207031 8.140625 -0.5625 C 6.710938 0.0820312 5.296875 0.40625 3.890625 0.40625 C 3.304688 0.40625 2.722656 0.363281 2.140625 0.28125 C 1.566406 0.195312 1.046875 0.0351562 0.578125 -0.203125 C 0.117188 -0.441406 -0.257812 -0.773438 -0.5625 -1.203125 C -0.875 -1.628906 -1.03125 -2.1875 -1.03125 -2.875 C -1.03125 -3.820312 -0.835938 -4.5625 -0.453125 -5.09375 C -0.078125 -5.625 0.394531 -6.039062 0.96875 -6.34375 C 1.550781 -6.65625 2.175781 -6.894531 2.84375 -7.0625 C 3.507812 -7.238281 4.128906 -7.453125 4.703125 -7.703125 C 5.285156 -7.960938 5.765625 -8.296875 6.140625 -8.703125 C 6.523438 -9.117188 6.71875 -9.703125 6.71875 -10.453125 C 6.71875 -11.171875 6.429688 -11.910156 5.859375 -12.671875 C 5.296875 -13.441406 4.671875 -14.265625 3.984375 -15.140625 C 3.304688 -16.015625 2.6875 -16.945312 2.125 -17.9375 C 1.5625 -18.925781 1.28125 -20.019531 1.28125 -21.21875 C 1.28125 -22.6875 1.578125 -24.039062 2.171875 -25.28125 C 2.773438 -26.53125 3.578125 -27.613281 4.578125 -28.53125 C 5.585938 -29.457031 6.738281 -30.1875 8.03125 -30.71875 C 9.332031 -31.25 10.703125 -31.515625 12.140625 -31.515625 C 12.691406 -31.515625 13.226562 -31.460938 13.75 -31.359375 C 14.28125 -31.253906 14.75 -31.070312 15.15625 -30.8125 C 15.570312 -30.5625 15.90625 -30.222656 16.15625 -29.796875 C 16.414062 -29.367188 16.546875 -28.832031 16.546875 -28.1875 Z M 16.546875 -28.1875 "/></g></g></g></svg>