<svg xmlns="http://www.w3.org/2000/svg" xmlns:xlink="http://www.w3.org/1999/xlink" width="500" zoomAndPan="magnify" viewBox="0 0 375 374.999991" height="500" preserveAspectRatio="xMidYMid meet" version="1.0"><defs><g/><clipPath id="8787a1574f"><path d="M 21.832031 21 L 353.332031 21 L 353.332031 353.925781 L 21.832031 353.925781 Z M 21.832031 21 " clip-rule="nonzero"/></clipPath></defs><g clip-path="url(#8787a1574f)"><path fill="#ffffff" d="M 192.660156 23.46875 L 184.234375 24.179688 L 175.8125 24.890625 L 178.710938 25.097656 L 192.660156 23.46875 M 212.214844 41.609375 L 211.226562 41.675781 L 211.433594 41.71875 L 212.214844 41.609375 M 207.582031 41.925781 L 196.660156 42.671875 L 200.789062 43.210938 L 208.390625 42.144531 L 207.582031 41.925781 M 181.320312 45.859375 L 181.636719 45.898438 L 181.636719 45.902344 L 180.488281 46.0625 L 181.320312 45.859375 M 167.957031 43.5 L 157.832031 46.617188 L 160.753906 44.488281 L 167.957031 43.5 M 170.613281 48.691406 L 170.433594 48.695312 L 170.257812 48.699219 L 169.023438 49.117188 C 169.554688 48.972656 170.082031 48.832031 170.613281 48.691406 M 198.035156 48.03125 L 209.246094 49.484375 L 209.738281 50.019531 L 198.042969 48.207031 L 186.316406 49.304688 L 174.457031 48.597656 L 198.035156 48.03125 M 222.53125 51.359375 L 222.679688 51.414062 L 222.828125 51.464844 L 222.765625 51.464844 C 222.6875 51.429688 222.609375 51.394531 222.53125 51.359375 M 187.941406 21.148438 L 220.09375 28.726562 L 237.066406 31.179688 L 256.761719 40.21875 L 280.421875 52.371094 L 251.246094 34.695312 L 242.460938 31.023438 L 214.089844 22.449219 L 187.941406 21.148438 M 224.035156 52.027344 L 225.214844 52.308594 L 225.761719 52.503906 L 224.753906 52.34375 L 224.035156 52.027344 M 211.433594 41.71875 L 208.390625 42.144531 L 248.972656 53.164062 L 247.335938 52.238281 L 224.511719 44.355469 L 211.433594 41.71875 M 180.105469 45.699219 L 181.261719 45.851562 L 180.421875 46.070312 L 178.945312 46.277344 L 161.179688 50.773438 L 180.132812 46.148438 L 170.613281 48.691406 L 173.554688 48.621094 L 163.683594 51.417969 L 161.953125 51.578125 L 160.4375 52.261719 L 159.40625 52.355469 L 169.023438 49.117188 L 157.738281 52.128906 L 157.152344 52.558594 L 149.0625 53.289062 L 151.015625 52.421875 L 180.105469 45.699219 M 155.738281 53.589844 L 155.648438 53.65625 L 155.5625 53.71875 C 155.140625 53.839844 154.714844 53.957031 154.292969 54.078125 C 154.773438 53.914062 155.253906 53.753906 155.738281 53.589844 M 248.972656 53.164062 L 249.84375 53.652344 L 250.710938 54.144531 L 251.039062 53.722656 L 248.972656 53.164062 M 190.042969 28.820312 L 154.738281 38.363281 L 124.328125 52.589844 L 122.085938 54.191406 L 125.191406 52.941406 L 126.605469 51.929688 L 157.945312 37.789062 L 189.675781 29.53125 L 190.042969 28.820312 M 139.882812 41.265625 L 131.203125 42.292969 L 107.300781 55.042969 L 134.710938 42.472656 L 112.023438 53.984375 L 139.882812 41.265625 M 132.695312 52.605469 L 131.414062 53.964844 L 130.136719 55.324219 L 124.003906 57.304688 C 126.902344 55.738281 129.796875 54.171875 132.695312 52.605469 M 146.183594 56.808594 L 140.605469 59.148438 L 141.78125 58.292969 L 146.183594 56.808594 M 244.050781 58.964844 L 245.457031 59.675781 C 245.875 59.753906 246.292969 59.828125 246.710938 59.90625 C 245.824219 59.59375 244.9375 59.28125 244.050781 58.964844 M 255.21875 61.269531 L 260.886719 62.519531 L 255.734375 61.570312 L 255.21875 61.269531 M 133.921875 64.011719 L 133.070312 64.628906 C 133.519531 64.425781 133.96875 64.226562 134.417969 64.023438 C 134.253906 64.019531 134.085938 64.015625 133.921875 64.011719 M 235.625 56.953125 L 242.867188 58.546875 L 244.050781 58.964844 L 243.496094 58.6875 L 248.453125 59.78125 L 249.347656 60.394531 L 246.710938 59.90625 L 250.6875 61.3125 L 256.203125 65.097656 L 252.792969 63.378906 L 250.472656 61.773438 L 251.511719 62.730469 L 245.457031 59.675781 L 237.003906 58.125 L 234.609375 56.960938 L 235.625 56.953125 M 293.09375 65.902344 L 293.125 65.929688 L 293.15625 65.953125 L 293.128906 65.925781 L 293.09375 65.902344 M 283.742188 64.632812 L 283.460938 64.660156 L 283.183594 64.691406 L 286.914062 67.625 C 285.855469 66.628906 284.800781 65.628906 283.742188 64.632812 M 281.128906 64.902344 L 282.949219 66.570312 L 284.773438 68.238281 C 283.390625 67.144531 282.007812 66.050781 280.625 64.957031 L 281.128906 64.902344 M 153.347656 55.335938 L 152.871094 55.683594 L 134.417969 64.023438 L 139.640625 64.125 L 139.058594 65.566406 L 128.84375 67.707031 L 133.070312 64.628906 L 128.132812 66.863281 L 126.78125 68.140625 L 126.65625 68.164062 L 125.976562 68.53125 L 131.636719 63.964844 L 133.921875 64.011719 L 139.75 59.773438 L 153.347656 55.335938 M 116.066406 59.488281 L 112.347656 61.160156 C 108.429688 63.964844 104.507812 66.769531 100.585938 69.578125 L 108.085938 65.210938 L 116.066406 59.488281 M 100.585938 69.578125 L 96.648438 71.867188 L 95.625 72.917969 L 95.675781 73.535156 L 97.339844 71.898438 L 100.585938 69.578125 M 268.613281 52.179688 L 296.175781 74.355469 L 296.355469 74.398438 L 284.019531 60.207031 L 268.613281 52.179688 M 121.847656 72.796875 L 120.226562 74.324219 L 118.605469 75.855469 C 118.242188 76.027344 117.878906 76.199219 117.515625 76.371094 L 118.636719 75.132812 L 121.847656 72.796875 M 95.675781 73.535156 L 93.378906 75.796875 L 91.082031 78.054688 C 92.660156 77.101562 94.238281 76.144531 95.8125 75.191406 C 95.769531 74.640625 95.722656 74.085938 95.675781 73.535156 M 98.546875 69.921875 L 91.519531 75.308594 L 87.542969 80.195312 L 89.953125 78.738281 L 95.625 72.917969 L 95.589844 72.484375 L 96.648438 71.867188 L 98.546875 69.921875 M 105.015625 77.042969 L 102.589844 79.363281 L 100.160156 81.6875 L 102.828125 78.589844 L 105.015625 77.042969 M 293.15625 65.953125 L 313.625 88.6875 C 310.449219 83.984375 307.273438 79.285156 304.097656 74.582031 L 293.15625 65.953125 M 254.269531 87.234375 L 255.558594 87.921875 L 257.757812 90.277344 L 256.714844 89.617188 L 254.269531 87.234375 M 98.359375 59.085938 L 88.714844 65.296875 L 66.589844 91.039062 L 84.292969 71.011719 L 100.453125 60.5 L 98.359375 59.085938 M 283.964844 92.308594 L 284.449219 92.679688 L 284.929688 93.054688 L 284.03125 92.421875 L 283.964844 92.308594 M 309.257812 89.234375 L 312.203125 93.238281 L 315.152344 97.246094 L 314.152344 94.867188 L 309.257812 89.234375 M 294.460938 82.738281 L 295.386719 86.042969 L 295.355469 86.179688 L 294.574219 85.390625 L 298.304688 94.246094 L 301.664062 97.328125 L 294.460938 82.738281 M 87.621094 98.050781 L 87.300781 98.601562 L 87.269531 98.621094 L 87.269531 98.625 L 87.621094 98.050781 M 260.628906 81.960938 L 278.488281 97.195312 L 279.5 98.84375 L 264.675781 86.511719 L 260.628906 81.960938 M 291.726562 78.175781 L 297.039062 85.921875 L 302.347656 93.664062 L 306.0625 99.019531 C 304.316406 94.871094 302.570312 90.71875 300.824219 86.570312 L 291.726562 78.175781 M 304.613281 90.722656 L 310.699219 99.753906 L 308.488281 96.007812 L 304.613281 90.722656 M 301.910156 101.878906 L 301.914062 101.890625 L 301.921875 101.902344 L 301.921875 101.90625 C 301.96875 101.949219 302.015625 101.992188 302.0625 102.035156 L 301.910156 101.878906 M 280.554688 102.691406 L 280.636719 102.820312 L 280.714844 102.949219 L 280.582031 102.710938 L 280.554688 102.691406 M 110.148438 94 L 109.039062 94.5625 C 105.613281 97.605469 102.183594 100.648438 98.753906 103.691406 C 101.84375 101.375 104.929688 99.058594 108.019531 96.742188 L 110.148438 94 M 200.367188 110.382812 L 199.839844 110.46875 L 199.316406 110.554688 L 199.503906 110.414062 C 199.789062 110.402344 200.078125 110.390625 200.367188 110.382812 M 212.046875 109.941406 L 209.746094 110.929688 L 207.425781 110.117188 L 212.046875 109.941406 M 180.351562 111.953125 L 175.78125 114.449219 L 172.222656 115.039062 L 173.734375 113.0625 L 180.351562 111.953125 M 334.5625 92.308594 L 339.09375 105.164062 L 343.628906 118.019531 C 343.203125 116.121094 342.777344 114.222656 342.351562 112.328125 L 334.5625 92.308594 M 296.847656 65.03125 L 312.820312 83.8125 L 322.128906 101.628906 L 328.261719 115.054688 L 330.523438 118.128906 L 330.632812 118.445312 L 329.300781 111.070312 L 315.945312 87.429688 L 296.847656 65.03125 M 165.550781 118.292969 L 164.035156 120.226562 L 163.953125 120.289062 L 161.050781 122.984375 L 165.550781 118.292969 M 112.4375 91.058594 L 110.148438 94 L 114.8125 91.644531 L 108.019531 96.742188 L 104.53125 101.230469 L 102.226562 106.429688 L 90.246094 121.414062 L 85.566406 130.03125 L 86.996094 125.617188 L 101.667969 104.582031 L 85.335938 126.578125 L 96.914062 106.011719 L 105.523438 95.023438 L 112.4375 91.058594 M 323.636719 118.28125 L 324.128906 120.597656 L 329.039062 134.417969 L 327.511719 126.636719 L 324.304688 119.015625 L 323.636719 118.28125 M 277.496094 97.65625 L 280.394531 100.300781 L 292.40625 119.875 L 294.316406 125.332031 L 280.714844 102.949219 L 297.050781 133.140625 L 297.914062 135.605469 L 290.5625 125.246094 L 280.34375 103.421875 L 277.316406 100.445312 L 280.554688 102.691406 L 277.496094 97.65625 M 329.039062 134.417969 L 329.140625 134.921875 L 329.238281 135.421875 L 330.242188 137.800781 C 329.839844 136.675781 329.441406 135.546875 329.039062 134.417969 M 325.300781 126.101562 L 326.039062 129.578125 L 326.78125 133.054688 L 329.953125 139.066406 C 329.714844 137.851562 329.476562 136.636719 329.238281 135.421875 L 325.300781 126.101562 M 84.773438 127.574219 L 83.324219 132.199219 L 81.875 136.820312 C 81.367188 137.757812 80.859375 138.691406 80.351562 139.628906 L 82.207031 132.132812 L 84.773438 127.574219 M 68.953125 139.300781 L 68.847656 139.710938 L 68.738281 140.121094 L 68.425781 140.691406 L 68.953125 139.300781 M 330.242188 137.800781 L 330.859375 139.535156 L 331.476562 141.273438 C 331.390625 140.886719 331.304688 140.5 331.21875 140.117188 L 330.242188 137.800781 M 332.230469 146.257812 L 332.164062 147.792969 L 332.09375 149.332031 L 332.464844 150.269531 C 332.386719 148.933594 332.308594 147.59375 332.230469 146.257812 M 145.570312 151.339844 L 145.492188 151.566406 L 145.417969 151.792969 C 145.410156 151.738281 145.402344 151.6875 145.394531 151.632812 C 145.453125 151.535156 145.511719 151.4375 145.570312 151.339844 M 149.351562 144.992188 L 146.277344 157.402344 L 145.851562 154.617188 L 148.789062 145.933594 L 149.351562 144.992188 M 145.957031 144.863281 L 144.097656 152.121094 L 142.234375 159.375 L 144.46875 147.242188 L 145.957031 144.863281 M 332.464844 150.269531 L 332.613281 152.800781 L 332.761719 155.335938 L 335.226562 161.28125 L 333.570312 153.058594 L 332.464844 150.269531 M 300.234375 144.53125 L 301.308594 149.625 L 302.382812 154.722656 C 302.074219 153.898438 301.765625 153.074219 301.453125 152.25 L 302.53125 163.476562 C 301.765625 157.160156 301 150.84375 300.234375 144.53125 M 302.394531 138.746094 L 305.242188 147.78125 L 308.085938 156.820312 L 309.273438 164.472656 L 304.074219 145.457031 L 302.394531 138.746094 M 331.917969 153.296875 L 331.742188 157.277344 L 331.703125 160.351562 L 333.433594 166.808594 L 332.761719 155.335938 L 331.917969 153.296875 M 35.53125 134.9375 L 35.351562 140.4375 C 35.554688 142.132812 35.757812 143.828125 35.960938 145.523438 C 33.039062 153.71875 30.113281 161.914062 27.191406 170.109375 L 35.53125 134.9375 M 343.628906 118.019531 L 349.890625 145.875 L 353.082031 174.640625 L 350.796875 141.769531 L 348.082031 133.316406 L 347.636719 129.382812 L 343.628906 118.019531 M 187.515625 175.359375 L 187.503906 175.601562 L 187.488281 175.839844 L 187.464844 175.929688 C 187.484375 175.738281 187.5 175.546875 187.515625 175.359375 M 305.421875 176.792969 L 305.5 177.476562 L 305.574219 178.15625 L 305.464844 179.105469 L 305.230469 177.867188 L 305.421875 176.792969 M 199.472656 177.960938 L 198.019531 181.976562 L 197.96875 180.550781 C 198.46875 179.6875 198.96875 178.824219 199.472656 177.960938 M 304.917969 179.605469 L 305.011719 182.9375 L 304.953125 183.445312 C 304.855469 182.640625 304.757812 181.835938 304.660156 181.035156 L 304.917969 179.605469 M 343.527344 170.59375 L 343.714844 177.554688 L 343.902344 184.519531 L 344.390625 178.597656 C 344.101562 175.929688 343.816406 173.261719 343.527344 170.59375 M 310.703125 173.722656 L 311.53125 179.066406 L 312.355469 184.410156 C 312.277344 185.433594 312.199219 186.457031 312.121094 187.480469 L 310.703125 173.722656 M 200.054688 186.824219 L 198.3125 189.824219 L 198.234375 187.714844 C 198.839844 187.417969 199.449219 187.121094 200.054688 186.824219 M 260.285156 189.273438 L 260.324219 189.429688 L 260.046875 190.144531 C 260.125 189.855469 260.203125 189.5625 260.285156 189.273438 M 304.222656 183.453125 L 304.789062 184.839844 L 304.058594 191.019531 C 303.960938 189.976562 303.863281 188.933594 303.765625 187.890625 C 303.753906 187.332031 303.738281 186.777344 303.722656 186.21875 L 304.222656 183.453125 M 306.285156 188.515625 L 306.703125 189.542969 L 306.753906 190.269531 L 306.179688 193.566406 L 305.992188 192.027344 L 306.355469 190.617188 C 306.332031 189.917969 306.308594 189.214844 306.285156 188.515625 M 195.839844 186.976562 L 197.171875 187.835938 L 197.515625 191.195312 L 194.597656 196.214844 L 195.839844 186.976562 M 341.40625 187.835938 L 341.085938 189.871094 L 340.769531 191.910156 C 340.492188 195.195312 340.214844 198.484375 339.9375 201.769531 C 340.546875 199.851562 341.160156 197.929688 341.769531 196.007812 L 341.40625 187.835938 M 300.292969 203.664062 L 300.289062 203.679688 L 300.285156 203.699219 C 300.277344 203.726562 300.269531 203.75 300.261719 203.777344 C 300.273438 203.738281 300.28125 203.699219 300.292969 203.664062 M 305.34375 194.542969 L 305.765625 209.230469 C 305.390625 205.238281 305.015625 201.25 304.644531 197.261719 C 304.878906 196.355469 305.109375 195.449219 305.34375 194.542969 M 135.871094 218.707031 L 136.441406 220.886719 C 136.335938 220.808594 136.230469 220.734375 136.121094 220.660156 C 136.039062 220.007812 135.953125 219.359375 135.871094 218.707031 M 139.890625 222.519531 L 140.429688 223.289062 L 140.964844 224.058594 L 140.066406 223.425781 C 140.007812 223.125 139.949219 222.820312 139.890625 222.519531 M 348.101562 182.335938 L 345.636719 187.148438 L 344.300781 199.414062 L 344.460938 205.304688 L 343.265625 208.914062 L 342.703125 214.070312 L 341.160156 225.355469 L 345.035156 213.8125 L 347.363281 211.179688 L 348.101562 182.335938 M 37.207031 168.746094 L 34.117188 189.441406 L 34.355469 197.347656 L 41.425781 226.386719 L 38.527344 209.507812 L 35.875 191.375 L 37.207031 168.746094 M 131.363281 221.65625 L 132.726562 223.355469 L 133.800781 226.671875 L 132.800781 225.984375 L 131.363281 221.65625 M 137.191406 228.945312 L 137.242188 229.003906 L 137.292969 229.066406 L 137.203125 229.003906 L 137.191406 228.945312 M 136.773438 225.707031 L 138.003906 226.828125 L 138.878906 230.15625 L 137.765625 229.394531 L 137.136719 228.507812 L 136.773438 225.707031 M 143.792969 232.09375 L 144.355469 232.609375 L 145.125 234.449219 L 144.765625 234.203125 L 143.792969 232.09375 M 69.945312 234.4375 L 69.972656 234.496094 L 69.980469 234.542969 L 69.945312 234.4375 M 36.640625 219.320312 L 44.84375 237.617188 C 44.878906 237.65625 44.917969 237.691406 44.957031 237.730469 L 36.640625 219.320312 M 327.445312 217.257812 L 325.824219 221.28125 L 320.550781 232.429688 L 318.875 238.027344 L 321.117188 238.664062 L 327.445312 217.257812 M 287.839844 231.625 L 286.726562 234.171875 L 285.617188 236.71875 L 282.410156 242.410156 C 284.222656 238.8125 286.03125 235.21875 287.839844 231.625 M 343.902344 184.519531 L 341.515625 213.402344 L 336.199219 227.425781 L 330.324219 244.421875 L 332.695312 240.875 L 343.265625 208.914062 L 344.300781 199.414062 L 343.902344 184.519531 M 70.78125 231.710938 L 74.628906 238.890625 L 78.472656 246.074219 C 77.667969 245.050781 76.863281 244.027344 76.058594 243.003906 L 70.78125 231.710938 M 137.828125 247.011719 L 144.34375 253.082031 L 143.113281 252.96875 L 139.347656 249.515625 L 137.828125 247.011719 M 136.039062 235.730469 L 136.878906 236.136719 L 139.113281 243.015625 L 147.226562 253.339844 L 146.46875 253.273438 L 139.324219 245.632812 L 136.039062 235.730469 M 145.746094 250.746094 L 147.234375 252.207031 L 148.175781 253.421875 L 147.730469 253.382812 L 145.746094 250.746094 M 165.753906 253.382812 L 168.484375 254.824219 L 166.875 255.078125 L 165.753906 253.382812 M 149.402344 255.089844 L 149.4375 255.097656 L 149.472656 255.101562 L 149.527344 255.175781 L 149.402344 255.089844 M 330.324219 244.421875 L 328.605469 246.992188 L 326.886719 249.566406 C 326.578125 252.0625 326.265625 254.554688 325.957031 257.050781 C 327.414062 252.84375 328.867188 248.632812 330.324219 244.421875 M 170.789062 256.710938 L 171.675781 257.785156 L 171.171875 257.816406 L 168.269531 257.195312 L 168.261719 257.179688 L 170.789062 256.710938 M 78.476562 253.332031 L 79.441406 254.550781 L 81.550781 259.183594 L 78.476562 253.332031 M 311.683594 239.46875 L 299.917969 259.597656 L 298.730469 260.179688 L 300.949219 255.703125 L 311.683594 239.46875 M 154.851562 262.867188 L 157.085938 264.953125 L 158.820312 267.195312 L 158.515625 267.097656 L 156.945312 265.65625 L 154.851562 262.867188 M 309.898438 267.460938 L 309.738281 267.707031 L 309.574219 267.953125 C 309.613281 267.917969 309.652344 267.886719 309.6875 267.855469 L 309.898438 267.460938 M 88.863281 267.125 L 89.425781 267.515625 L 89.988281 267.902344 L 90.109375 268.054688 C 89.695312 267.746094 89.277344 267.4375 88.863281 267.125 M 297.644531 272.800781 L 296.449219 274.164062 L 296.285156 274.261719 L 296.175781 274.066406 L 297.644531 272.800781 M 324.550781 239.777344 L 309.898438 267.460938 L 319.753906 252.390625 L 315.519531 262.816406 L 309.6875 267.855469 L 307.023438 272.886719 L 305.394531 274.347656 L 309.574219 267.953125 L 308.046875 269.273438 L 324.550781 239.777344 M 285.542969 278.355469 L 284.933594 279.136719 L 284.328125 279.921875 C 284.296875 279.9375 284.265625 279.953125 284.234375 279.96875 L 285.542969 278.355469 M 106.800781 280.535156 L 108.898438 281.585938 L 109.179688 281.890625 L 107.21875 280.847656 L 106.800781 280.535156 M 286.332031 282.554688 L 284.511719 284.351562 L 282.691406 286.144531 C 282.410156 286.238281 282.125 286.335938 281.839844 286.429688 C 283.335938 285.136719 284.835938 283.847656 286.332031 282.554688 M 110.554688 286.132812 L 116.25 289.6875 L 116.402344 289.851562 L 110.578125 286.164062 L 110.554688 286.132812 M 247.882812 291.605469 L 235.621094 298.027344 L 240.191406 295.324219 L 247.882812 291.605469 M 303.410156 266.214844 L 299.953125 270.164062 L 301.390625 267.675781 L 295.660156 273.136719 L 294.582031 271.199219 L 294.230469 271.523438 L 294.035156 273.511719 L 288.859375 279.613281 L 281.628906 286.5 L 277.972656 287.714844 L 277.332031 288.507812 L 277.917969 287.734375 L 275.386719 288.578125 L 270.058594 292.074219 L 261.488281 298.925781 L 273.625 293.511719 L 280.382812 287.683594 L 278.488281 289.488281 L 292.808594 278.320312 L 286.96875 284.992188 L 290.480469 282.585938 L 285.214844 288.90625 L 297.128906 274.953125 L 299.035156 273.480469 L 303.820312 267.359375 L 303.410156 266.214844 M 350.800781 231.1875 L 336.519531 263.121094 L 329.355469 274.773438 L 328.855469 281.117188 L 310.6875 299.976562 L 315.679688 297.546875 L 335.414062 275.621094 L 346.492188 258.566406 L 341.683594 263.640625 L 350.800781 231.1875 M 256.402344 296.425781 L 255.570312 297.214844 L 249.914062 300.050781 L 248.644531 300.136719 L 256.402344 296.425781 M 62.378906 284.71875 L 63.179688 287.445312 L 63.976562 290.171875 L 76.988281 301.730469 C 76.671875 300.976562 76.351562 300.222656 76.03125 299.46875 C 71.480469 294.550781 66.929688 289.636719 62.378906 284.71875 M 224.351562 300.90625 L 228.617188 302.089844 L 225.996094 303.183594 L 223.84375 302.632812 L 221.253906 302.660156 L 220.246094 302.351562 L 224.351562 300.90625 M 131.269531 306.15625 L 131.351562 306.191406 L 131.429688 306.226562 L 131.425781 306.226562 L 131.269531 306.15625 M 239.585938 305.226562 L 234.089844 307.980469 L 227.960938 307.910156 L 230.070312 307.183594 L 239.585938 305.226562 M 212.917969 305.984375 L 217.402344 306.554688 L 211.296875 308.046875 L 205.242188 307.640625 L 209.121094 306.269531 L 212.917969 305.984375 M 308.546875 289.808594 L 306.585938 290.777344 L 304.621094 291.75 L 282.839844 311.929688 C 291.410156 304.554688 299.976562 297.179688 308.546875 289.808594 M 350.347656 264.070312 L 336.175781 283.140625 L 307.917969 312.074219 L 330.539062 292.167969 L 350.347656 264.070312 M 213.820312 312.769531 L 213.878906 312.773438 L 213.933594 312.773438 L 213.933594 312.777344 C 213.875 312.78125 213.816406 312.785156 213.757812 312.789062 L 213.820312 312.769531 M 307.917969 312.074219 L 307.3125 312.609375 L 306.707031 313.140625 C 306.835938 313.066406 306.964844 312.992188 307.09375 312.917969 C 307.367188 312.636719 307.644531 312.355469 307.917969 312.074219 M 44.957031 237.730469 L 51.796875 252.878906 L 75.480469 283.90625 L 93.921875 301.191406 L 110.132812 311.773438 L 116.921875 313.816406 L 105.148438 305.808594 L 95.101562 296.554688 L 85.820312 290.878906 L 59.574219 260.265625 L 46.113281 238.886719 L 44.957031 237.730469 M 129.824219 304.371094 L 131.425781 306.226562 L 138.070312 309.128906 L 137.824219 309.054688 L 131.429688 306.226562 L 131.503906 306.3125 L 135.808594 308.46875 L 132.550781 307.523438 L 133.585938 308.71875 L 148.445312 314.429688 L 150.640625 314.726562 L 146.074219 312.707031 L 146.21875 312.6875 L 150.992188 314.773438 L 152.273438 314.949219 L 147.792969 312.496094 L 149.09375 312.332031 L 145.703125 311.347656 L 142.589844 309.640625 L 129.824219 304.371094 M 168.445312 317.117188 L 168.632812 317.175781 L 168.253906 317.125 C 168.316406 317.125 168.382812 317.121094 168.445312 317.117188 M 168.71875 317.105469 L 193.613281 317.867188 L 195.226562 318.027344 L 179.730469 318.6875 L 170.078125 317.375 L 168.648438 317.109375 L 168.71875 317.105469 M 102.402344 290.320312 L 128.476562 306.339844 L 132.550781 307.523438 L 131.503906 306.3125 L 117.394531 299.242188 L 129.824219 304.371094 L 126.976562 301.085938 L 142.589844 309.640625 L 149.09375 312.335938 L 163.210938 316.4375 L 152.273438 314.949219 L 155.75 316.855469 L 150.992188 314.773438 L 150.640625 314.726562 L 159.996094 318.867188 L 148.445312 314.429688 L 142.496094 313.617188 L 114.777344 299.691406 L 102.402344 290.320312 M 266.203125 311.605469 L 252.605469 317.863281 L 251.921875 319.179688 L 240.667969 320.953125 L 244.335938 318.472656 L 252.96875 315.894531 L 254.757812 314.847656 L 266.203125 311.605469 M 283.324219 317.429688 L 274.765625 320.957031 L 266.203125 324.484375 L 271.75 322.910156 C 275.609375 321.082031 279.46875 319.257812 283.324219 317.429688 M 162.910156 319.988281 L 200.652344 327.289062 L 211.792969 328.902344 L 203.234375 330.09375 L 173.332031 323.992188 L 162.910156 319.988281 M 306.707031 313.140625 L 291.332031 321.960938 L 275.960938 330.785156 L 298.773438 320.121094 L 306.707031 313.140625 M 176.695312 33.457031 L 153.84375 42.414062 C 153.175781 41.679688 143.625 45.1875 125.191406 52.941406 L 116.066406 59.488281 L 124.203125 55.824219 C 110.90625 63.1875 102.710938 68.339844 99.617188 71.28125 L 75.234375 97.152344 L 91.082031 78.054688 L 82.53125 86.351562 L 87.542969 80.195312 L 83.5 81.460938 L 104.425781 63.894531 L 98.546875 69.921875 L 106.597656 63.75 C 109.105469 63.480469 114.265625 60.296875 122.085938 54.191406 L 115.054688 57.023438 L 118 52.90625 L 102.6875 62.988281 L 79.242188 84.949219 L 60.890625 110.4375 L 45.035156 149.808594 L 55.710938 117.039062 L 53.921875 116.742188 L 49.390625 125.707031 L 42.539062 150.789062 L 37.964844 182.59375 L 41.441406 216.628906 L 55.722656 247.699219 L 75.304688 275.96875 L 100.207031 299.210938 L 129.898438 317.160156 L 162.863281 327.824219 L 196.410156 330.820312 C 186.246094 331.425781 174.304688 331.269531 160.578125 330.347656 L 196.804688 332.820312 L 227.371094 330.355469 L 232.675781 327.644531 L 274.972656 313.757812 L 304.621094 291.75 L 327.996094 270.097656 L 340.140625 244.78125 L 312.289062 278.949219 L 287.503906 301.269531 L 280.886719 302.480469 L 299.375 289.65625 L 312.660156 276.972656 C 314.089844 273.75 314.300781 272.171875 313.289062 272.242188 L 309.710938 275.261719 L 326.886719 249.566406 L 337.851562 220.167969 L 341.023438 205.898438 L 339.496094 207 L 339.9375 201.769531 L 338.566406 206.074219 L 340.769531 191.910156 L 341.304688 185.597656 L 341.40625 187.835938 L 342.597656 180.164062 C 341.675781 174.773438 341.347656 165.644531 341.605469 152.769531 L 343.527344 170.59375 L 343.09375 154.410156 L 341.128906 148.378906 L 341.1875 148.917969 L 330.632812 118.445312 L 331.175781 121.433594 L 328.261719 115.054688 L 315.152344 97.246094 L 324.304688 119.015625 L 326.480469 121.390625 L 331.21875 140.117188 L 339.957031 159.335938 L 340.414062 165.746094 L 338.09375 170.457031 L 336.550781 190.125 C 336.863281 179.601562 335.824219 171.828125 333.433594 166.808594 L 334.066406 177.546875 L 329.675781 209.710938 L 327.445312 217.257812 L 333.328125 202.660156 L 322.964844 235.195312 L 325.390625 231.503906 L 336.347656 192.683594 L 335.925781 198.09375 L 326.414062 231.792969 L 309.449219 264.824219 L 313.691406 254.734375 L 303.820312 267.359375 L 304.523438 269.339844 L 299.035156 273.480469 L 290.585938 284.289062 C 285.828125 288.859375 283.21875 290.695312 282.761719 289.796875 L 286.96875 284.992188 L 264.203125 300.578125 L 255.128906 303.261719 L 276.867188 286.632812 C 278.496094 286.101562 279.773438 285.242188 280.703125 284.054688 L 277.972656 287.714844 L 281.621094 283.207031 L 294.230469 271.523438 L 294.3125 270.710938 L 294.582031 271.199219 L 304.851562 261.6875 L 301.390625 267.675781 C 302.140625 267.667969 304.082031 265.730469 307.222656 261.863281 L 318.257812 238.492188 L 315.109375 243.933594 C 317.902344 241.269531 322.367188 228.59375 328.496094 205.902344 L 331.363281 187.710938 L 331.703125 160.351562 L 327.09375 143.140625 C 328.953125 146.132812 330.558594 149.519531 331.917969 153.296875 L 332.09375 149.332031 L 320.308594 119.542969 L 314.769531 114.390625 L 301.308594 95.886719 L 303.859375 105.675781 L 301.269531 101.285156 C 300.984375 100.921875 301.199219 101.121094 301.910156 101.878906 C 301.359375 101.503906 300.15625 98.957031 298.304688 94.246094 C 293.675781 90.949219 288.4375 85.1875 282.59375 76.957031 L 265.757812 63.804688 L 266.507812 63.070312 L 250.710938 54.144531 L 249.558594 55.628906 L 243.160156 54.285156 L 212.234375 45.722656 L 209.867188 44.394531 L 200.789062 43.210938 L 181.363281 45.847656 L 196.660156 42.671875 L 185.039062 41.160156 L 198.152344 39.363281 C 206.367188 42.007812 210.726562 42.78125 211.226562 41.675781 L 199.109375 39.230469 L 203.4375 38.636719 L 244.21875 48.101562 L 282.199219 69.382812 L 291.726562 78.175781 L 290.875 74.679688 L 304.613281 90.722656 L 297.003906 79.425781 L 300.664062 82.777344 C 305.257812 91.597656 311.09375 100.421875 318.179688 109.246094 L 325.300781 126.101562 L 324.128906 120.597656 L 320.46875 110.300781 L 302.523438 81.488281 L 309.257812 89.234375 L 298.386719 74.851562 C 295.757812 73.707031 295.679688 74.246094 298.152344 76.460938 L 286.914062 67.625 L 298.835938 78.875 L 294.371094 75.835938 L 281.203125 64.894531 L 283.183594 64.691406 L 269.101562 53.617188 L 228.230469 35.96875 L 176.695312 33.457031 M 266.203125 324.484375 L 234.535156 333.480469 L 223.273438 336.597656 L 223.199219 337.414062 L 251.136719 333.351562 L 244.289062 333.515625 L 266.203125 324.484375 M 147.222656 327.3125 L 146.820312 328.019531 L 146.421875 328.722656 L 180.253906 338.800781 L 183.707031 338.136719 L 147.222656 327.3125 M 158.972656 24.175781 L 145.507812 25.421875 L 117.992188 37.300781 L 88.082031 55.8125 L 81.183594 58.503906 L 56.90625 86.25 L 66.128906 72.941406 C 55.703125 84.648438 48.542969 93.789062 44.648438 100.359375 L 33.625 128.351562 L 23.621094 167.070312 L 21.800781 207.320312 L 27.304688 222.671875 L 28.40625 220.949219 L 26.949219 211.125 L 35.792969 234.949219 L 50.648438 261.285156 L 71.515625 289.945312 C 52.832031 266.535156 42.285156 252.480469 39.863281 247.773438 L 60.082031 278.183594 L 82.414062 301.695312 C 91.480469 307.417969 100.621094 313.714844 109.839844 320.585938 L 136.007812 331.871094 L 168.800781 340.734375 L 175.492188 341.335938 L 155.34375 336.367188 L 120.121094 324.050781 L 87.367188 302.585938 L 62.082031 276.539062 L 58.910156 271.339844 L 85.398438 299.371094 L 112.5625 317.480469 L 91.492188 302.671875 L 66.027344 278.417969 L 52.402344 258.75 L 35.246094 226.519531 L 29.128906 185.605469 L 34 157.269531 L 39.964844 133.871094 L 57.570312 96.261719 L 64.277344 88.1875 L 45.300781 122.589844 L 37.074219 146.691406 L 47.710938 124.578125 L 45.46875 126.222656 L 59.789062 96.664062 L 87.933594 63.992188 L 113.890625 48.902344 L 145.570312 34.398438 L 116.839844 45.21875 L 143.304688 34.027344 L 174.09375 27.84375 L 206.289062 29.683594 L 207.703125 28.710938 L 224.242188 32.378906 L 208.957031 27.234375 L 178.710938 25.09375 C 154.664062 27.574219 140.914062 29.503906 137.464844 30.882812 L 158.972656 24.175781 M 256.351562 341.105469 L 252.777344 341.695312 L 213.875 346.847656 L 178.855469 348.585938 L 221.15625 347.667969 L 245.175781 343.496094 L 255.214844 342.253906 L 256.351562 341.105469 M 240.238281 349.308594 L 200.328125 353.257812 L 219.902344 352.566406 L 227.761719 352.132812 L 240.238281 349.308594 M 200.328125 353.257812 L 199.640625 353.285156 L 198.949219 353.308594 L 199.476562 353.34375 C 199.761719 353.316406 200.046875 353.289062 200.328125 353.257812 M 142.945312 348.359375 L 181.105469 353.9375 L 198.949219 353.308594 L 162.242188 350.847656 L 142.945312 348.359375 " fill-opacity="1" fill-rule="nonzero"/></g><g fill="#af0561" fill-opacity="1"><g transform="translate(63.262618, 240.15788)"><g><path d="M 125.4375 -104.296875 C 131.175781 -104.296875 134.046875 -101.945312 134.046875 -97.25 C 134.046875 -95.78125 133.734375 -93.953125 133.109375 -91.765625 L 129.34375 -79.078125 C 128.195312 -75.210938 126.785156 -72.5 125.109375 -70.9375 C 123.441406 -69.375 121.046875 -68.59375 117.921875 -68.59375 C 115.304688 -68.59375 113.289062 -69.269531 111.875 -70.625 C 110.46875 -71.976562 109.140625 -74.117188 107.890625 -77.046875 L 105.234375 -83.46875 C 104.398438 -85.445312 103.507812 -86.800781 102.5625 -87.53125 C 101.625 -88.257812 100.164062 -88.625 98.1875 -88.625 L 94.578125 -88.625 L 74.6875 -18.640625 C 74.375 -17.273438 74.21875 -16.070312 74.21875 -15.03125 C 74.21875 -13.78125 74.398438 -12.734375 74.765625 -11.890625 C 75.140625 -11.054688 75.691406 -10.171875 76.421875 -9.234375 C 77.359375 -7.773438 77.828125 -6.578125 77.828125 -5.640625 C 77.828125 -5.429688 77.722656 -4.910156 77.515625 -4.078125 C 76.992188 -2.710938 75.972656 -1.71875 74.453125 -1.09375 C 72.941406 -0.46875 70.78125 -0.15625 67.96875 -0.15625 L 31.15625 -0.15625 C 28.96875 -0.15625 27.269531 -0.519531 26.0625 -1.25 C 24.863281 -1.976562 24.265625 -3.023438 24.265625 -4.390625 C 24.265625 -5.015625 24.421875 -5.640625 24.734375 -6.265625 C 25.160156 -7.203125 25.660156 -7.90625 26.234375 -8.375 C 26.804688 -8.84375 27.664062 -9.441406 28.8125 -10.171875 C 30.375 -11.117188 31.675781 -12.164062 32.71875 -13.3125 C 33.769531 -14.457031 34.660156 -16.234375 35.390625 -18.640625 L 55.125 -88.625 L 51.515625 -88.625 C 49.222656 -88.625 47.34375 -88.257812 45.875 -87.53125 C 44.414062 -86.800781 42.851562 -85.445312 41.1875 -83.46875 L 36.015625 -77.046875 C 33.617188 -74.222656 31.296875 -72.109375 29.046875 -70.703125 C 26.804688 -69.296875 24.378906 -68.59375 21.765625 -68.59375 C 19.367188 -68.59375 17.488281 -69.21875 16.125 -70.46875 C 14.769531 -71.71875 14.09375 -73.441406 14.09375 -75.640625 C 14.09375 -76.679688 14.25 -77.828125 14.5625 -79.078125 L 18.640625 -93.328125 C 19.472656 -96.253906 20.410156 -98.472656 21.453125 -99.984375 C 22.492188 -101.492188 23.976562 -102.585938 25.90625 -103.265625 C 27.84375 -103.953125 30.585938 -104.296875 34.140625 -104.296875 Z M 125.4375 -104.296875 "/></g></g></g><g fill="#004aad" fill-opacity="1"><g transform="translate(182.114173, 240.15788)"><g><path d="M 58.5625 -105.234375 C 64.40625 -105.234375 69.804688 -104.523438 74.765625 -103.109375 C 79.734375 -101.703125 84.773438 -99.488281 89.890625 -96.46875 L 93.484375 -99.4375 C 95.992188 -101.414062 98.054688 -102.769531 99.671875 -103.5 C 101.285156 -104.238281 103.140625 -104.609375 105.234375 -104.609375 C 107.734375 -104.609375 109.710938 -104.054688 111.171875 -102.953125 C 112.640625 -101.859375 113.375 -100.269531 113.375 -98.1875 C 113.375 -97.351562 113.21875 -96.460938 112.90625 -95.515625 L 106.328125 -73.90625 C 105.597656 -71.40625 104.679688 -69.628906 103.578125 -68.578125 C 102.484375 -67.535156 100.84375 -67.015625 98.65625 -67.015625 C 96.351562 -67.015625 94.34375 -67.71875 92.625 -69.125 C 90.90625 -70.539062 88.21875 -73.441406 84.5625 -77.828125 C 80.90625 -82.003906 77.585938 -84.953125 74.609375 -86.671875 C 71.640625 -88.398438 68.585938 -89.265625 65.453125 -89.265625 C 63.160156 -89.265625 61.226562 -88.503906 59.65625 -86.984375 C 58.09375 -85.472656 57.3125 -83.617188 57.3125 -81.421875 C 57.3125 -78.921875 58.5625 -76.597656 61.0625 -74.453125 C 63.570312 -72.316406 67.488281 -69.628906 72.8125 -66.390625 C 78.238281 -63.160156 82.726562 -60.238281 86.28125 -57.625 C 89.832031 -55.019531 92.859375 -51.785156 95.359375 -47.921875 C 97.867188 -44.054688 99.125 -39.617188 99.125 -34.609375 C 99.125 -31.367188 98.601562 -28.128906 97.5625 -24.890625 C 95.050781 -16.546875 90.191406 -10.207031 82.984375 -5.875 C 75.785156 -1.539062 67.382812 0.625 57.78125 0.625 C 50.582031 0.625 44.53125 -0.207031 39.625 -1.875 C 34.71875 -3.550781 29.703125 -6.367188 24.578125 -10.328125 L 18.953125 -5.640625 C 16.335938 -3.441406 14.191406 -1.953125 12.515625 -1.171875 C 10.847656 -0.390625 8.972656 0 6.890625 0 C 4.484375 0 2.578125 -0.570312 1.171875 -1.71875 C -0.234375 -2.863281 -0.9375 -4.429688 -0.9375 -6.421875 C -0.9375 -7.460938 -0.726562 -8.554688 -0.3125 -9.703125 L 7.359375 -33.046875 C 8.191406 -35.753906 9.335938 -37.679688 10.796875 -38.828125 C 12.265625 -39.984375 14.144531 -40.5625 16.4375 -40.5625 C 18.84375 -40.5625 21.007812 -39.722656 22.9375 -38.046875 C 24.875 -36.378906 27.40625 -33.351562 30.53125 -28.96875 C 33.875 -24.164062 36.976562 -20.820312 39.84375 -18.9375 C 42.71875 -17.0625 46.140625 -16.125 50.109375 -16.125 C 52.929688 -16.125 55.097656 -16.566406 56.609375 -17.453125 C 58.117188 -18.347656 59.1875 -19.785156 59.8125 -21.765625 C 60.019531 -22.285156 60.125 -23.066406 60.125 -24.109375 C 60.125 -26.617188 58.921875 -28.914062 56.515625 -31 C 54.117188 -33.09375 50.414062 -35.597656 45.40625 -38.515625 C 40.082031 -41.753906 35.75 -44.648438 32.40625 -47.203125 C 29.070312 -49.765625 26.175781 -52.976562 23.71875 -56.84375 C 21.269531 -60.707031 20.046875 -65.25 20.046875 -70.46875 C 20.046875 -74.125 20.617188 -77.722656 21.765625 -81.265625 C 23.960938 -88.472656 28.453125 -94.269531 35.234375 -98.65625 C 42.015625 -103.039062 49.789062 -105.234375 58.5625 -105.234375 Z M 58.5625 -105.234375 "/></g></g></g></svg>