<svg xmlns="http://www.w3.org/2000/svg" xmlns:xlink="http://www.w3.org/1999/xlink" width="200" zoomAndPan="magnify" viewBox="0 0 150 149.999998" height="200" preserveAspectRatio="xMidYMid meet" version="1.0"><defs><g/></defs><path stroke-linecap="butt" transform="matrix(0.75, 0, 0, 0.75, 74.999997, 19.308839)" fill="none" stroke-linejoin="miter" d="M 23.614589 104.99968 L 23.614589 72.166344 L 25.031256 72.166344 C 25.031256 79.468428 26.093756 85.437178 28.213547 90.067387 C 30.333339 94.697596 33.208339 98.109054 36.838548 100.296554 C 40.48959 102.489263 44.541673 103.583013 48.994799 103.583013 C 51.770841 103.583013 54.312507 103.166346 56.609382 102.327804 C 58.906258 101.489263 60.739591 100.103846 62.109383 98.161137 C 63.500008 96.218429 64.197925 93.645512 64.197925 90.442387 C 64.197925 87.379887 63.223966 84.572595 61.281258 82.02572 C 59.359383 79.46322 56.848966 77.015303 53.750007 74.681969 C 50.651049 72.348636 47.385424 70.030927 43.947923 67.734052 C 40.526048 65.437177 37.265631 63.05176 34.166673 60.572594 C 31.067714 58.098635 28.552089 55.400718 26.609381 52.478843 C 24.687506 49.562176 23.723964 46.343426 23.723964 42.838218 C 23.723964 38.614259 24.875006 35.124675 27.171881 32.364259 C 29.468756 29.588217 32.359381 27.504883 35.854173 26.114258 C 39.359381 24.723633 42.906257 24.030925 46.484382 24.030925 C 49.260424 24.030925 51.614591 24.306966 53.536466 24.85905 C 55.479174 25.3903 57.135424 26.041342 58.505216 26.806967 C 59.895841 27.572592 61.151049 28.23405 62.270841 28.786133 C 63.411466 29.338217 64.531258 29.614258 65.635425 29.614258 C 67.098966 29.614258 68.078133 29.286133 68.578133 28.624675 C 69.093758 27.968425 69.348967 26.833008 69.348967 25.23405 L 70.765633 25.23405 L 70.765633 51.062176 L 69.348967 51.062176 C 69.348967 46.166343 68.416675 41.885092 66.546883 38.213217 C 64.692716 34.530925 62.166674 31.661134 58.958341 29.614258 C 55.755216 27.567383 52.104174 26.541342 48.005215 26.541342 C 43.625007 26.541342 40.484382 27.583008 38.578131 29.666342 C 36.687506 31.749675 35.744798 34.395509 35.744798 37.598634 C 35.744798 41.181967 36.687506 44.343426 38.578131 47.083009 C 40.484382 49.806968 42.932298 52.286135 45.921882 54.510093 C 48.916674 56.73926 52.083341 58.911135 55.432299 61.030927 C 58.796883 63.129885 61.979174 65.364261 64.968758 67.734052 C 67.96355 70.103844 70.40105 72.749678 72.291675 75.666344 C 74.192717 78.58822 75.145842 82.015303 75.145842 85.952803 C 75.145842 89.676762 74.40105 93.067387 72.906258 96.129887 C 71.406258 99.192388 68.906258 101.661138 65.395841 103.530929 C 61.906258 105.385096 57.062507 106.306971 50.86459 106.306971 C 47.875007 106.306971 45.354173 106.051763 43.307298 105.536138 C 41.255215 105.036138 39.484381 104.437179 37.98959 103.744471 C 36.494798 103.051763 35.119798 102.452804 33.875006 101.952804 C 32.645839 101.437179 31.375006 101.181971 30.057298 101.181971 C 26.708339 101.181971 25.031256 102.452804 25.031256 104.99968 Z M 23.614589 104.99968 " stroke="#ffffff" stroke-width="8.207025" stroke-opacity="1" stroke-miterlimit="4"/><g fill="#1e40af" fill-opacity="1"><g transform="translate(88.605465, 98.058834)"><g><path d="M 4.109375 0 L 4.109375 -24.625 L 5.171875 -24.625 C 5.171875 -19.144531 5.960938 -14.664062 7.546875 -11.1875 C 9.128906 -7.71875 11.289062 -5.160156 14.03125 -3.515625 C 16.769531 -1.878906 19.804688 -1.0625 23.140625 -1.0625 C 25.222656 -1.0625 27.125 -1.375 28.84375 -2 C 30.570312 -2.632812 31.953125 -3.675781 32.984375 -5.125 C 34.023438 -6.570312 34.546875 -8.503906 34.546875 -10.921875 C 34.546875 -13.210938 33.820312 -15.316406 32.375 -17.234375 C 30.925781 -19.148438 29.035156 -20.984375 26.703125 -22.734375 C 24.378906 -24.484375 21.929688 -26.21875 19.359375 -27.9375 C 16.796875 -29.664062 14.347656 -31.457031 12.015625 -33.3125 C 9.691406 -35.175781 7.804688 -37.203125 6.359375 -39.390625 C 4.910156 -41.578125 4.1875 -43.984375 4.1875 -46.609375 C 4.1875 -49.785156 5.046875 -52.410156 6.765625 -54.484375 C 8.492188 -56.566406 10.671875 -58.125 13.296875 -59.15625 C 15.921875 -60.195312 18.570312 -60.71875 21.25 -60.71875 C 23.332031 -60.71875 25.097656 -60.515625 26.546875 -60.109375 C 27.992188 -59.703125 29.238281 -59.207031 30.28125 -58.625 C 31.320312 -58.050781 32.265625 -57.5625 33.109375 -57.15625 C 33.960938 -56.75 34.796875 -56.546875 35.609375 -56.546875 C 36.703125 -56.546875 37.441406 -56.789062 37.828125 -57.28125 C 38.210938 -57.769531 38.40625 -58.617188 38.40625 -59.828125 L 39.46875 -59.828125 L 39.46875 -40.453125 L 38.40625 -40.453125 C 38.40625 -44.117188 37.707031 -47.332031 36.3125 -50.09375 C 34.914062 -52.863281 33.015625 -55.015625 30.609375 -56.546875 C 28.203125 -58.078125 25.46875 -58.84375 22.40625 -58.84375 C 19.125 -58.84375 16.769531 -58.0625 15.34375 -56.5 C 13.925781 -54.9375 13.21875 -52.953125 13.21875 -50.546875 C 13.21875 -47.867188 13.925781 -45.503906 15.34375 -43.453125 C 16.769531 -41.398438 18.601562 -39.539062 20.84375 -37.875 C 23.082031 -36.207031 25.460938 -34.578125 27.984375 -32.984375 C 30.503906 -31.398438 32.882812 -29.71875 35.125 -27.9375 C 37.363281 -26.164062 39.191406 -24.179688 40.609375 -21.984375 C 42.035156 -19.796875 42.75 -17.226562 42.75 -14.28125 C 42.75 -11.488281 42.1875 -8.941406 41.0625 -6.640625 C 39.945312 -4.347656 38.078125 -2.503906 35.453125 -1.109375 C 32.828125 0.285156 29.1875 0.984375 24.53125 0.984375 C 22.289062 0.984375 20.40625 0.789062 18.875 0.40625 C 17.34375 0.0195312 16.015625 -0.425781 14.890625 -0.9375 C 13.773438 -1.457031 12.75 -1.910156 11.8125 -2.296875 C 10.882812 -2.679688 9.925781 -2.875 8.9375 -2.875 C 6.425781 -2.875 5.171875 -1.914062 5.171875 0 Z M 4.109375 0 "/></g></g></g><path stroke-linecap="butt" transform="matrix(0.488195, 0, 0, 0.488195, 15, 19.589895)" fill="none" stroke-linejoin="miter" d="M 19.555464 67.323823 L 17.451091 67.323823 L 22.804039 36.646388 L 125.742275 36.646388 L 131.087222 67.323823 L 128.990851 67.323823 C 127.694621 60.08254 125.478229 54.377529 122.333672 50.200789 C 119.189114 46.024049 115.292424 43.079528 110.635599 41.359223 C 105.986776 39.622915 100.745847 38.750761 94.904812 38.750761 L 83.20674 38.750761 L 83.20674 144.137431 C 83.20674 147.810082 84.118901 150.194504 85.943225 151.274695 C 87.791552 152.354887 90.672062 152.898983 94.584756 152.898983 L 94.584756 155.003356 L 54.153593 155.003356 L 54.153593 152.898983 C 58.042282 152.898983 60.866782 152.354887 62.635095 151.274695 C 64.435414 150.194504 65.331573 147.810082 65.331573 144.137431 L 65.331573 38.750761 L 53.481474 38.750761 C 47.752459 38.750761 42.559539 39.622915 37.902714 41.359223 C 33.25389 43.079528 29.381204 46.024049 26.292657 50.200789 C 23.20411 54.377529 20.955712 60.08254 19.555464 67.323823 Z M 19.555464 67.323823 " stroke="#ffffff" stroke-width="16.641142" stroke-opacity="1" stroke-miterlimit="4"/><g fill="#ad1457" fill-opacity="1"><g transform="translate(21.933891, 95.26008)"><g><path d="M 2.609375 -42.796875 L 1.578125 -42.796875 L 4.203125 -57.78125 L 54.453125 -57.78125 L 57.078125 -42.796875 L 56.046875 -42.796875 C 55.410156 -46.335938 54.320312 -49.125 52.78125 -51.15625 C 51.25 -53.195312 49.347656 -54.640625 47.078125 -55.484375 C 44.804688 -56.328125 42.242188 -56.75 39.390625 -56.75 L 33.6875 -56.75 L 33.6875 -5.3125 C 33.6875 -3.507812 34.132812 -2.34375 35.03125 -1.8125 C 35.9375 -1.289062 37.335938 -1.03125 39.234375 -1.03125 L 39.234375 0 L 19.5 0 L 19.5 -1.03125 C 21.40625 -1.03125 22.789062 -1.289062 23.65625 -1.8125 C 24.53125 -2.34375 24.96875 -3.507812 24.96875 -5.3125 L 24.96875 -56.75 L 19.1875 -56.75 C 16.382812 -56.75 13.847656 -56.328125 11.578125 -55.484375 C 9.304688 -54.640625 7.414062 -53.195312 5.90625 -51.15625 C 4.394531 -49.125 3.296875 -46.335938 2.609375 -42.796875 Z M 2.609375 -42.796875 "/></g></g></g></svg>